#!OML:ASF E:\EmotionMaleHayes\Project 1\Capture day 1\Session 1\Male1.ASF
:FULLY-SPECIFIED
:DEGREES
554
root 38.7905 16.714 -1.12149 977.529 101.162 984.92
lowerback 7.19996 1.73179 -13.5721
upperback 4.97341 1.86655 -3.71911
thorax 0.967743 0.806505 3.55513
lowerneck -22.6933 0.0603473 1.83597
upperneck 31.7387 -0.18812 0.29049
head 14.8177 0.394231 -0.178094
rclavicle 6.85807e-015 2.62396e-014
rhumerus -36.5538 -5.26795 -83.5011
rradius 24.5135
rwrist 13.4855
rhand -10.096 -30.0146
rfingers 7.12502
rthumb 15.8912 -59.3825
lclavicle 6.85807e-015 2.62396e-014
lhumerus -18.9833 -16.0359 86.545
lradius 34.1006
lwrist -2.91135
lhand -18.4063 -27.7692
lfingers 7.12502
lthumb 7.8782 2.06401
rfemur -8.29125 -4.73729 2.8489
rtibia 71.4437
rfoot 1.14479 -2.62219
rtoes 24.265
lfemur 1.74056 3.51466 -34.2098
ltibia 16.0919
lfoot -11.5458 7.80098
ltoes -7.79258
555
root 38.8946 16.7015 -1.14333 978.699 101.491 986.244
lowerback 7.29038 1.64282 -13.8668
upperback 5.0254 1.73173 -3.78661
thorax 0.99646 0.734234 3.65222
lowerneck -22.3249 0.122824 1.74179
upperneck 31.5795 -0.10398 0.456752
head 14.6652 0.441854 -0.078087
rclavicle 1.13307e-014 4.6118e-014
rhumerus -37.2697 -5.9673 -83.0405
rradius 24.6828
rwrist 13.0681
rhand -10.7864 -30.2069
rfingers 7.12502
rthumb 15.2263 -59.6266
lclavicle 1.13307e-014 4.6118e-014
lhumerus -18.391 -16.7725 86.4406
lradius 34.5579
lwrist -2.95174
lhand -18.5923 -28.0079
lfingers 7.12502
lthumb 7.69868 1.83196
rfemur -9.43796 -5.3468 2.32234
rtibia 72.0971
rfoot -0.34821 -1.87649
rtoes 25.067
lfemur 2.48457 3.30275 -34.7312
ltibia 15.7622
lfoot -11.7527 7.89264
ltoes -6.62335
556
root 38.9886 16.6928 -1.15345 979.302 101.753 986.913
lowerback 7.41448 1.59357 -14.2473
upperback 5.05085 1.63177 -3.80093
thorax 0.971389 0.679407 3.84804
lowerneck -22.3337 0.138574 1.78023
upperneck 31.7515 -0.0610919 0.383952
head 14.7452 0.458886 -0.105176
rclavicle 1.23246e-014 -7.83212e-014
rhumerus -37.7824 -6.4745 -82.6635
rradius 24.7249
rwrist 12.6412
rhand -10.7883 -30.6496
rfingers 7.12502
rthumb 15.2245 -60.0695
lclavicle 1.23246e-014 -7.83212e-014
lhumerus -17.6991 -17.3804 86.2977
lradius 34.8813
lwrist -2.77145
lhand -18.7389 -28.3613
lfingers 7.12502
lthumb 7.55717 1.48368
rfemur -10.866 -5.76245 2.11857
rtibia 72.6498
rfoot -1.57247 -1.42034
rtoes 24.717
lfemur 2.96514 3.17202 -35.0886
ltibia 15.6361
lfoot -11.97 7.97193
ltoes -7.28965
557
root 39.0806 16.6893 -1.16123 979.411 101.715 986.991
lowerback 7.44996 1.51989 -14.3521
upperback 5.06198 1.52115 -3.73848
thorax 0.980717 0.61928 3.97834
lowerneck -22.3113 0.238818 1.9081
upperneck 31.8556 0.0564597 0.346544
head 14.7889 0.522165 -0.119503
rclavicle 2.98177e-015 -1.35174e-014
rhumerus -38.2777 -6.79131 -82.3953
rradius 24.8603
rwrist 12.124
rhand -10.8925 -30.7747
rfingers 7.12502
rthumb 15.1241 -60.2021
lclavicle 2.98177e-015 -1.35174e-014
lhumerus -16.989 -17.7603 86.087
lradius 35.1908
lwrist -2.82707
lhand -18.7872 -28.4314
lfingers 7.12502
lthumb 7.5106 1.41529
rfemur -12.3324 -6.03223 2.39308
rtibia 72.9657
rfoot -3.13735 -1.56456
rtoes 22.4075
lfemur 3.26466 3.13862 -35.085
ltibia 15.659
lfoot -12.2028 8.01063
ltoes -8.17935
558
root 39.1813 16.6839 -1.17259 979.683 101.34 987.318
lowerback 7.47899 1.38456 -14.0457
upperback 5.09499 1.34996 -3.60484
thorax 1.02514 0.531614 3.96565
lowerneck -22.2184 0.477819 2.38732
upperneck 32.0546 0.41206 -0.13683
head 14.8648 0.667833 -0.333292
rclavicle 6.95746e-016 -9.14409e-015
rhumerus -38.919 -7.07259 -82.1242
rradius 25.0742
rwrist 11.9503
rhand -9.44305 -32.0016
rfingers 7.12502
rthumb 16.5199 -61.3184
lclavicle 6.95746e-016 -9.14409e-015
lhumerus -16.3182 -18.0422 85.8831
lradius 35.4035
lwrist -2.96546
lhand -18.8279 -28.6055
lfingers 7.12502
lthumb 7.47125 1.24261
rfemur -13.4442 -6.2775 3.00918
rtibia 72.9592
rfoot -4.0255 -2.08503
rtoes 23.9846
lfemur 3.7111 3.00759 -34.7608
ltibia 15.7214
lfoot -12.6604 8.07212
ltoes -7.99528
559
root 39.2932 16.674 -1.18157 980.139 101.196 987.933
lowerback 7.40159 1.26971 -14.0136
upperback 5.22323 1.22793 -3.49458
thorax 1.22474 0.452506 4.07572
lowerneck -22.2175 0.521217 2.37953
upperneck 32.1672 0.49576 -0.163368
head 14.9175 0.701312 -0.326369
rclavicle -1.30204e-014 -2.42517e-014
rhumerus -39.4195 -7.18524 -81.8778
rradius 25.1375
rwrist 11.6544
rhand -9.01979 -32.2937
rfingers 7.12502
rthumb 16.9274 -61.576
lclavicle -1.30204e-014 -2.42517e-014
lhumerus -15.5136 -18.2987 85.7212
lradius 35.4616
lwrist -2.93886
lhand -18.8004 -28.8515
lfingers 7.12502
lthumb 7.4978 0.995613
rfemur -14.3108 -6.45579 3.306
rtibia 72.7353
rfoot -5.81565 -2.01098
rtoes 23.9708
lfemur 4.29582 2.92901 -34.6893
ltibia 15.7812
lfoot -13.0911 8.19625
ltoes -8.65497
560
root 39.4005 16.6634 -1.18928 980.696 101.509 988.627
lowerback 7.37635 1.22162 -14.4298
upperback 5.31016 1.16471 -3.51295
thorax 1.34769 0.403604 4.28774
lowerneck -22.1928 0.494893 2.27159
upperneck 32.3069 0.478413 -0.0754448
head 14.9753 0.697798 -0.27349
rclavicle -6.4605e-015 -3.53837e-014
rhumerus -39.9174 -7.27726 -81.6909
rradius 25.2659
rwrist 11.0666
rhand -9.08668 -32.0647
rfingers 7.12502
rthumb 16.863 -61.3525
lclavicle -6.4605e-015 -3.53837e-014
lhumerus -14.8439 -18.5361 85.5895
lradius 35.628
lwrist -2.94012
lhand -18.6156 -28.8396
lfingers 7.12502
lthumb 7.67622 1.00107
rfemur -15.2529 -6.64729 3.05312
rtibia 72.4058
rfoot -7.02445 -1.8157
rtoes 24.7028
lfemur 4.67702 2.97919 -35.0805
ltibia 16.0903
lfoot -13.5304 8.1507
ltoes -8.64077
561
root 39.4997 16.6603 -1.2007 980.74 101.661 988.703
lowerback 7.40832 1.1703 -14.6051
upperback 5.31764 1.08477 -3.52766
thorax 1.35451 0.360058 4.37232
lowerneck -22.1895 0.48745 2.16823
upperneck 32.4345 0.455103 0.0927251
head 15.0326 0.703492 -0.188969
rclavicle 2.00773e-014 4.69132e-014
rhumerus -40.4489 -7.46195 -81.5163
rradius 25.4738
rwrist 10.5911
rhand -9.21198 -31.7026
rfingers 7.12502
rthumb 16.7424 -61.0007
lclavicle 2.00773e-014 4.69132e-014
lhumerus -14.3505 -18.5785 85.4269
lradius 35.9009
lwrist -3.12153
lhand -18.5234 -28.8521
lfingers 7.12502
lthumb 7.76514 0.985347
rfemur -16.4466 -6.77686 3.0684
rtibia 71.9802
rfoot -7.63005 -1.89476
rtoes 23.9512
lfemur 4.87647 3.02559 -35.289
ltibia 16.5048
lfoot -14.0281 8.06233
ltoes -8.31058
562
root 39.5938 16.6369 -1.20942 980.097 101.393 988.043
lowerback 7.38426 1.10318 -14.3795
upperback 5.34906 1.009 -3.41537
thorax 1.41078 0.318276 4.37422
lowerneck -22.2582 0.601173 2.1721
upperneck 32.4899 0.598899 0.15245
head 15.0758 0.77373 -0.136617
rclavicle 6.65929e-015 -4.29375e-014
rhumerus -40.8282 -7.63732 -81.315
rradius 25.5598
rwrist 10.249
rhand -9.25901 -31.2856
rfingers 7.12502
rthumb 16.6971 -60.5875
lclavicle 6.65929e-015 -4.29375e-014
lhumerus -13.7665 -18.5128 85.2299
lradius 36.1197
lwrist -3.24732
lhand -18.5128 -28.9493
lfingers 7.12502
lthumb 7.77539 0.88773
rfemur -17.4342 -6.76463 3.70585
rtibia 71.2889
rfoot -8.46047 -1.92114
rtoes 23.4087
lfemur 5.12484 2.98481 -35.0451
ltibia 16.7357
lfoot -14.5546 8.22002
ltoes -8.46775
563
root 39.694 16.6193 -1.21513 979.458 101.051 987.423
lowerback 7.38326 1.0339 -14.1328
upperback 5.34454 0.919205 -3.25737
thorax 1.4165 0.272442 4.41303
lowerneck -22.3549 0.691129 2.21431
upperneck 32.7008 0.744263 0.0936151
head 15.1982 0.83613 -0.138327
rclavicle 6.80837e-015 2.78299e-015
rhumerus -41.3111 -7.54373 -81.2039
rradius 25.7346
rwrist 9.71971
rhand -9.02885 -31.1384
rfingers 7.12502
rthumb 16.9187 -60.4215
lclavicle 6.80837e-015 2.78299e-015
lhumerus -13.2832 -18.5274 85.075
lradius 36.3541
lwrist -3.26224
lhand -18.4388 -28.8611
lfingers 7.12502
lthumb 7.84681 0.973248
rfemur -18.2462 -6.65055 4.42204
rtibia 70.4122
rfoot -9.42481 -1.88359
rtoes 23.7597
lfemur 5.32339 2.91091 -34.7013
ltibia 17.1898
lfoot -15.3628 8.26994
ltoes -6.51983
